<?xml version="1.0" encoding="utf-8"?>
<!-- Generator: Adobe Illustrator 27.5.0, SVG Export Plug-In . SVG Version: 6.00 Build 0)  -->
<svg version="1.1" xmlns="http://www.w3.org/2000/svg" xmlns:xlink="http://www.w3.org/1999/xlink" x="0px" y="0px"
	 viewBox="0 0 600 500" style="enable-background:new 0 0 600 500;" xml:space="preserve">
<g id="BACKGROUND">
	<rect style="fill:#FFFFFF;stroke:#000000;stroke-miterlimit:10;" width="600" height="500"/>
</g>
<g id="OBJECTS">
	<g>
		<g>
			<g>
				<g>
					<g>
						<path style="fill:#BBB1BA;" d="M343.363,430.286H187.423c-8.625,0-15.617-6.992-15.617-15.617V82.436
							c0-8.625,6.992-15.617,15.617-15.617h155.939c8.625,0,15.617,6.992,15.617,15.617v332.234
							C358.98,423.294,351.988,430.286,343.363,430.286z"/>
					</g>
					<g>
						<path style="fill:#F2E1D1;" d="M187.423,423.38c-4.804,0-8.712-3.907-8.712-8.711V82.436c0-4.804,3.908-8.712,8.712-8.712
							h155.939c4.804,0,8.712,3.908,8.712,8.712v332.234c0,4.804-3.909,8.711-8.712,8.711H187.423z"/>
					</g>
				</g>
				<g>
					<path style="fill:#BBB1BA;" d="M247.701,112.502h-36.219c-3.829,0-6.933-3.104-6.933-6.933l0,0
						c0-3.829,3.104-6.933,6.933-6.933h36.219c3.829,0,6.933,3.104,6.933,6.933l0,0
						C254.635,109.397,251.531,112.502,247.701,112.502z"/>
				</g>
				<g>
					<path style="fill:#BBB1BA;" d="M247.701,228.194h-36.219c-3.829,0-6.933-3.104-6.933-6.933l0,0
						c0-3.829,3.104-6.933,6.933-6.933h36.219c3.829,0,6.933,3.104,6.933,6.933l0,0C254.635,225.09,251.531,228.194,247.701,228.194
						z"/>
				</g>
				<g>
					<g>
						<g>
							<rect x="223.108" y="159.531" style="fill:#BBB1BA;" width="10.148" height="24.659"/>
						</g>
						<g>
							<rect x="239.034" y="154.332" style="fill:#BBB1BA;" width="10.148" height="29.858"/>
						</g>
						<g>
							<rect x="254.959" y="148.393" style="fill:#BBB1BA;" width="10.147" height="35.796"/>
						</g>
						<g>
							<rect x="270.885" y="141.912" style="fill:#BBB1BA;" width="10.147" height="42.278"/>
						</g>
						<g>
							<rect x="286.811" y="136.135" style="fill:#BBB1BA;" width="10.147" height="48.054"/>
						</g>
						<g>
							<rect x="302.736" y="125.564" style="fill:#BBB1BA;" width="10.148" height="58.626"/>
						</g>
					</g>
					<g>
						<rect x="210.746" y="184.189" style="fill:#BBB1BA;" width="113.745" height="2.241"/>
					</g>
				</g>
				<g>
					<g>
						<path style="fill:#BBB1BA;" d="M305.32,294.121c0,23.631-19.149,42.781-42.78,42.781c-23.623,0-42.781-19.149-42.781-42.781
							c0-15.414,8.162-28.93,20.394-36.462l19.593,38.734l42.944-17.08C304.394,283.928,305.32,288.915,305.32,294.121z"/>
					</g>
					<g>
						<path style="fill:#BBB1BA;" d="M278.313,238.907L263.98,282.38l2.109-45.045c0.226-0.008,0.459-0.008,0.685-0.008
							C270.773,237.328,274.64,237.88,278.313,238.907z"/>
					</g>
					<g>
						<path style="fill:#BBB1BA;" d="M311.027,271.879l-42.944,17.08l14.333-43.473C295.66,249.182,306.304,259.095,311.027,271.879
							z"/>
					</g>
					<g>
						<path style="fill:#BBB1BA;" d="M261.601,240.45l-2.109,45.045l-19.593-38.734C246.225,242.87,253.656,240.574,261.601,240.45z
							"/>
					</g>
				</g>
			</g>
			<g>
				<g>
					<g>
						
							<ellipse transform="matrix(0.8269 -0.5623 0.5623 0.8269 -164.9485 153.1621)" style="fill:#F29F04;" cx="166.342" cy="344.545" rx="43.593" ry="43.593"/>
					</g>
					<g>
						<path style="fill:#D97803;" d="M166.426,382.404c-3.067,0-6.16-0.374-9.224-1.137c-4.783-1.19-9.209-3.254-13.156-6.134
							c-12.501-9.117-18.164-24.711-14.427-39.727c2.441-9.81,8.556-18.08,17.218-23.291c8.662-5.209,18.834-6.734,28.644-4.293
							c13.358,3.324,23.869,13.658,27.432,26.969c1.645,6.148,1.698,12.68,0.151,18.892l0,0c-2.046,8.22-6.634,15.33-13.269,20.563
							C183.007,379.598,174.817,382.404,166.426,382.404z M166.277,308.236c-6.51,0-12.919,1.765-18.642,5.207
							c-8.308,4.997-14.172,12.93-16.514,22.337c-3.584,14.402,1.848,29.358,13.837,38.103c3.785,2.761,8.03,4.739,12.618,5.882
							c10.974,2.729,22.368,0.275,31.259-6.734c6.363-5.019,10.764-11.838,12.726-19.721l0,0c1.483-5.959,1.433-12.224-0.144-18.118
							c-3.417-12.767-13.499-22.679-26.311-25.867C172.18,308.596,169.218,308.236,166.277,308.236z"/>
					</g>
					<g>
						<path style="fill:#D97803;" d="M180.847,350.837c-0.861-1.864-2.58-3.429-5.156-4.696l0.073-0.264
							c2.296,0.219,4.235-0.26,5.817-1.437c1.581-1.177,2.685-2.895,3.313-5.155c0.931-3.353,0.424-6.137-1.518-8.349
							c-1.034-1.177-2.564-2.248-4.558-3.218l1.192-4.296c0.406-1.462-0.451-2.977-1.913-3.382
							c-1.462-0.406-2.977,0.451-3.382,1.913l-1.055,3.802c-0.394-0.119-0.779-0.241-1.194-0.356l-2.605-0.723l1.049-3.779
							c0.406-1.462-0.451-2.977-1.913-3.383c-1.462-0.406-2.977,0.451-3.383,1.913l-1.049,3.779l-3.59-0.996l-3.622-1.005
							c-1.462-0.406-2.977,0.451-3.383,1.913c-0.406,1.462,0.451,2.977,1.913,3.382l3.622,1.005l-7.796,28.092l-3.622-1.005
							c-1.462-0.406-2.977,0.451-3.383,1.913c-0.406,1.462,0.451,2.977,1.913,3.382l3.622,1.005l-0.007,0.026l3.59,0.996
							l-1.049,3.779c-0.406,1.462,0.451,2.977,1.913,3.383c1.462,0.406,2.977-0.451,3.382-1.913l1.049-3.779l3.805,1.056
							l-1.049,3.779c-0.406,1.462,0.451,2.977,1.913,3.383s2.977-0.451,3.382-1.913l1.143-4.119
							c2.579,0.244,4.865-0.052,6.845-0.914c2.973-1.294,4.942-3.68,5.908-7.157C181.781,354.922,181.707,352.702,180.847,350.837z
							 M171.313,330.782c2.86,0.794,4.834,1.779,5.924,2.956c1.089,1.177,1.382,2.674,0.877,4.492
							c-0.559,2.012-1.563,3.269-3.013,3.769c-1.451,0.5-3.5,0.383-6.148-0.352l-6.089-1.69l2.969-10.697l2.291,0.636
							L171.313,330.782z M171.181,359.361c-1.632,0.641-3.772,0.593-6.419-0.142l-4.434-1.231l-2.291-0.636l3.402-12.259
							l6.408,1.778c2.806,0.779,4.763,1.845,5.87,3.198c1.108,1.353,1.382,3.035,0.823,5.048
							C173.932,357.307,172.813,358.721,171.181,359.361z"/>
					</g>
				</g>
				<g>
					<g>
						<path style="fill:#F29F04;" d="M143.974,282.672c1.836,24.006-16.136,44.954-40.142,46.79
							c-24.006,1.836-44.954-16.136-46.79-40.142c-1.836-24.006,16.136-44.954,40.142-46.79
							C121.19,240.694,142.139,258.666,143.974,282.672z"/>
					</g>
					<g>
						<path style="fill:#D97803;" d="M100.455,323.841c-3.908,0-7.757-0.601-11.48-1.793c-14.735-4.719-25.019-17.737-26.199-33.167
							c-0.771-10.078,2.429-19.853,9.011-27.525c6.582-7.672,15.757-12.321,25.836-13.092c13.723-1.046,26.956,5.449,34.527,16.963
							c3.496,5.316,5.602,11.5,6.09,17.884l0,0c0.645,8.445-1.472,16.639-6.122,23.693c-6.499,9.857-16.968,16.025-28.725,16.924
							C102.411,323.803,101.431,323.841,100.455,323.841z M100.511,249.702c-0.92,0-1.843,0.035-2.771,0.106
							c-9.666,0.739-18.466,5.198-24.779,12.556c-6.313,7.357-9.382,16.733-8.642,26.4c1.131,14.798,10.995,27.284,25.128,31.81
							c4.46,1.43,9.11,1.969,13.828,1.611c11.275-0.862,21.317-6.779,27.55-16.232c4.46-6.767,6.49-14.624,5.871-22.725
							c-0.468-6.122-2.487-12.053-5.84-17.15C124.106,255.813,112.664,249.702,100.511,249.702z"/>
					</g>
					<g>
						<path style="fill:#D97803;" d="M116.257,287.403c-1.404-1.498-3.528-2.443-6.372-2.834l-0.014-0.274
							c2.248-0.515,3.938-1.58,5.069-3.195c1.131-1.615,1.638-3.593,1.522-5.935c-0.172-3.476-1.529-5.958-4.069-7.446
							c-1.352-0.792-3.141-1.327-5.34-1.62l-0.221-4.453c-0.075-1.516-1.365-2.684-2.88-2.608c-1.516,0.075-2.683,1.365-2.608,2.88
							l0.195,3.941c-0.411,0.011-0.816,0.017-1.245,0.038l-2.7,0.134l-0.194-3.917c-0.075-1.516-1.365-2.684-2.88-2.608
							s-2.684,1.365-2.608,2.88l0.194,3.917l-3.721,0.185l-3.754,0.186c-1.516,0.075-2.684,1.365-2.608,2.88
							c0.075,1.516,1.365,2.684,2.88,2.608l3.755-0.186l1.443,29.118l-3.755,0.186c-1.516,0.075-2.684,1.365-2.608,2.88
							c0.075,1.516,1.365,2.684,2.88,2.608l3.755-0.186l0.001,0.027l3.721-0.185l0.194,3.917c0.075,1.516,1.365,2.684,2.88,2.608
							c1.516-0.075,2.684-1.365,2.608-2.88l-0.194-3.917l3.944-0.195l0.194,3.917c0.075,1.516,1.365,2.684,2.88,2.608
							c1.516-0.075,2.684-1.365,2.608-2.88l-0.212-4.269c2.525-0.58,4.602-1.581,6.21-3.022c2.415-2.164,3.533-5.049,3.354-8.653
							C118.429,290.986,117.66,288.901,116.257,287.403z M100.895,271.368c2.964-0.147,5.148,0.167,6.553,0.941
							c1.404,0.774,2.153,2.103,2.247,3.988c0.103,2.086-0.454,3.595-1.674,4.526c-1.22,0.932-3.202,1.465-5.946,1.601l-6.312,0.313
							l-0.549-11.087l2.375-0.118L100.895,271.368z M109.765,298.536c-1.347,1.122-3.393,1.75-6.138,1.886l-4.596,0.228
							l-2.375,0.118l-0.63-12.706l6.642-0.329c2.909-0.144,5.102,0.252,6.578,1.187c1.477,0.935,2.267,2.446,2.37,4.532
							C111.73,295.72,111.113,297.415,109.765,298.536z"/>
					</g>
				</g>
				<g>
					<g>
						<path style="fill:#4E508D;" d="M198.668,391.594H86.079c-0.536,0-1.01-0.35-1.169-0.861l-26.506-85.393
							c-0.115-0.372-0.047-0.776,0.184-1.09c0.231-0.313,0.597-0.498,0.986-0.498h164.681c0.676,0,1.224,0.549,1.224,1.225
							c0,0.676-0.548,1.225-1.224,1.225H61.235l25.746,82.944h110.852l51.408-130.85c0.184-0.469,0.636-0.777,1.14-0.777h33.184
							c0.676,0,1.224,0.549,1.224,1.225c0,0.676-0.548,1.225-1.224,1.225h-32.349l-51.408,130.85
							C199.623,391.285,199.171,391.594,198.668,391.594z"/>
					</g>
					<g>
						
							<ellipse transform="matrix(0.9745 -0.2246 0.2246 0.9745 -89.418 50.7333)" style="fill:#4E508D;" cx="178.309" cy="418.439" rx="12.962" ry="12.962"/>
					</g>
					<g>
						
							<ellipse transform="matrix(0.7382 -0.6746 0.6746 0.7382 -253.9299 182.6349)" style="fill:#4E508D;" cx="108.312" cy="418.439" rx="12.962" ry="12.962"/>
					</g>
					<g>
						<path style="fill:#4E508D;" d="M210.63,333.867H67.68c-0.676,0-1.224-0.549-1.224-1.225c0-0.676,0.548-1.225,1.224-1.225
							h142.95c0.676,0,1.224,0.549,1.224,1.225C211.854,333.319,211.306,333.867,210.63,333.867z"/>
					</g>
					<g>
						<path style="fill:#4E508D;" d="M199.568,360.484H76.423c-0.676,0-1.224-0.549-1.224-1.225c0-0.676,0.548-1.225,1.224-1.225
							h123.145c0.676,0,1.224,0.549,1.224,1.225C200.792,359.935,200.244,360.484,199.568,360.484z"/>
					</g>
				</g>
			</g>
			<g>
				<g>
					<g>
						<g>
							<rect x="370.739" y="417.791" style="fill:#F29F04;" width="87.475" height="12.074"/>
						</g>
						<g>
							<path style="fill:#D97803;" d="M458.214,430.26h-48.729c-0.218,0-0.395-0.177-0.395-0.395c0-0.218,0.177-0.395,0.395-0.395
								h48.729c0.218,0,0.395,0.177,0.395,0.395C458.609,430.083,458.432,430.26,458.214,430.26z"/>
						</g>
						<g>
							<path style="fill:#D97803;" d="M422.716,430.26c-0.218,0-0.395-0.177-0.395-0.395v-12.074c0-0.218,0.177-0.395,0.395-0.395
								c0.218,0,0.395,0.177,0.395,0.395v12.074C423.111,430.083,422.934,430.26,422.716,430.26z"/>
						</g>
						<g>
							<path style="fill:#D97803;" d="M429.848,430.26c-0.218,0-0.395-0.177-0.395-0.395v-12.074c0-0.218,0.177-0.395,0.395-0.395
								s0.395,0.177,0.395,0.395v12.074C430.243,430.083,430.066,430.26,429.848,430.26z"/>
						</g>
						<g>
							<path style="fill:#D97803;" d="M439.656,430.26c-0.218,0-0.395-0.177-0.395-0.395v-12.074c0-0.218,0.177-0.395,0.395-0.395
								s0.395,0.177,0.395,0.395v12.074C440.05,430.083,439.874,430.26,439.656,430.26z"/>
						</g>
						<g>
							<path style="fill:#D97803;" d="M448.571,430.26c-0.218,0-0.395-0.177-0.395-0.395v-12.074c0-0.218,0.177-0.395,0.395-0.395
								c0.218,0,0.395,0.177,0.395,0.395v12.074C448.965,430.083,448.789,430.26,448.571,430.26z"/>
						</g>
					</g>
					<g>
						<g>
							<rect x="362.5" y="405.717" style="fill:#F29F04;" width="87.475" height="12.074"/>
						</g>
						<g>
							<path style="fill:#D97803;" d="M449.975,418.186h-48.729c-0.218,0-0.395-0.177-0.395-0.395c0-0.218,0.177-0.395,0.395-0.395
								h48.729c0.218,0,0.395,0.177,0.395,0.395C450.37,418.009,450.193,418.186,449.975,418.186z"/>
						</g>
						<g>
							<path style="fill:#D97803;" d="M414.476,418.186c-0.218,0-0.395-0.177-0.395-0.395v-12.075c0-0.218,0.177-0.395,0.395-0.395
								s0.395,0.177,0.395,0.395v12.075C414.871,418.009,414.694,418.186,414.476,418.186z"/>
						</g>
						<g>
							<path style="fill:#D97803;" d="M421.609,418.186c-0.218,0-0.395-0.177-0.395-0.395v-12.075c0-0.218,0.177-0.395,0.395-0.395
								c0.218,0,0.395,0.177,0.395,0.395v12.075C422.004,418.009,421.827,418.186,421.609,418.186z"/>
						</g>
						<g>
							<path style="fill:#D97803;" d="M431.417,418.186c-0.218,0-0.395-0.177-0.395-0.395v-12.075c0-0.218,0.177-0.395,0.395-0.395
								c0.218,0,0.395,0.177,0.395,0.395v12.075C431.811,418.009,431.634,418.186,431.417,418.186z"/>
						</g>
						<g>
							<path style="fill:#D97803;" d="M440.332,418.186c-0.218,0-0.395-0.177-0.395-0.395v-12.075c0-0.218,0.177-0.395,0.395-0.395
								s0.395,0.177,0.395,0.395v12.075C440.726,418.009,440.549,418.186,440.332,418.186z"/>
						</g>
					</g>
					<g>
						<g>
							<rect x="373.987" y="393.642" style="fill:#F29F04;" width="87.475" height="12.074"/>
						</g>
						<g>
							<path style="fill:#D97803;" d="M461.462,406.111h-80.585c-0.218,0-0.395-0.177-0.395-0.395c0-0.218,0.177-0.395,0.395-0.395
								h80.585c0.218,0,0.395,0.177,0.395,0.395C461.856,405.934,461.679,406.111,461.462,406.111z"/>
						</g>
						<g>
							<path style="fill:#D97803;" d="M425.964,406.111c-0.218,0-0.395-0.177-0.395-0.395v-12.074c0-0.218,0.177-0.395,0.395-0.395
								c0.218,0,0.395,0.177,0.395,0.395v12.074C426.358,405.934,426.181,406.111,425.964,406.111z"/>
						</g>
						<g>
							<path style="fill:#D97803;" d="M433.096,406.111c-0.218,0-0.395-0.177-0.395-0.395v-12.074c0-0.218,0.177-0.395,0.395-0.395
								c0.218,0,0.395,0.177,0.395,0.395v12.074C433.491,405.934,433.314,406.111,433.096,406.111z"/>
						</g>
						<g>
							<path style="fill:#D97803;" d="M442.903,406.111c-0.218,0-0.395-0.177-0.395-0.395v-12.074c0-0.218,0.177-0.395,0.395-0.395
								c0.218,0,0.394,0.177,0.394,0.395v12.074C443.297,405.934,443.121,406.111,442.903,406.111z"/>
						</g>
						<g>
							<path style="fill:#D97803;" d="M451.819,406.111c-0.218,0-0.395-0.177-0.395-0.395v-12.074c0-0.218,0.177-0.395,0.395-0.395
								c0.218,0,0.395,0.177,0.395,0.395v12.074C452.214,405.934,452.037,406.111,451.819,406.111z"/>
						</g>
					</g>
					<g>
						<g>
							<rect x="364.929" y="381.568" style="fill:#F29F04;" width="87.475" height="12.074"/>
						</g>
						<g>
							<path style="fill:#D97803;" d="M452.404,394.036h-48.729c-0.218,0-0.395-0.177-0.395-0.395s0.177-0.395,0.395-0.395h48.729
								c0.218,0,0.395,0.177,0.395,0.395S452.622,394.036,452.404,394.036z"/>
						</g>
						<g>
							<path style="fill:#D97803;" d="M416.906,394.036c-0.218,0-0.395-0.177-0.395-0.395v-12.074c0-0.218,0.177-0.395,0.395-0.395
								s0.395,0.177,0.395,0.395v12.074C417.3,393.86,417.124,394.036,416.906,394.036z"/>
						</g>
						<g>
							<path style="fill:#D97803;" d="M424.038,394.036c-0.218,0-0.395-0.177-0.395-0.395v-12.074c0-0.218,0.177-0.395,0.395-0.395
								c0.218,0,0.395,0.177,0.395,0.395v12.074C424.432,393.86,424.255,394.036,424.038,394.036z"/>
						</g>
						<g>
							<path style="fill:#D97803;" d="M433.845,394.036c-0.218,0-0.395-0.177-0.395-0.395v-12.074c0-0.218,0.177-0.395,0.395-0.395
								c0.218,0,0.395,0.177,0.395,0.395v12.074C434.24,393.86,434.063,394.036,433.845,394.036z"/>
						</g>
						<g>
							<path style="fill:#D97803;" d="M442.76,394.036c-0.218,0-0.395-0.177-0.395-0.395v-12.074c0-0.218,0.177-0.395,0.395-0.395
								c0.218,0,0.395,0.177,0.395,0.395v12.074C443.155,393.86,442.978,394.036,442.76,394.036z"/>
						</g>
					</g>
					<g>
						<g>
							<rect x="380.981" y="369.493" style="fill:#F29F04;" width="87.475" height="12.074"/>
						</g>
						<g>
							<path style="fill:#D97803;" d="M468.456,381.962H398.25c-0.218,0-0.395-0.177-0.395-0.395c0-0.218,0.177-0.395,0.395-0.395
								h70.206c0.218,0,0.395,0.177,0.395,0.395C468.85,381.785,468.673,381.962,468.456,381.962z"/>
						</g>
						<g>
							<path style="fill:#D97803;" d="M432.959,381.962c-0.218,0-0.395-0.177-0.395-0.395v-12.074c0-0.218,0.177-0.395,0.395-0.395
								c0.218,0,0.395,0.177,0.395,0.395v12.074C433.353,381.785,433.176,381.962,432.959,381.962z"/>
						</g>
						<g>
							<path style="fill:#D97803;" d="M440.09,381.962c-0.218,0-0.395-0.177-0.395-0.395v-12.074c0-0.218,0.177-0.395,0.395-0.395
								c0.218,0,0.395,0.177,0.395,0.395v12.074C440.485,381.785,440.308,381.962,440.09,381.962z"/>
						</g>
						<g>
							<path style="fill:#D97803;" d="M449.898,381.962c-0.218,0-0.395-0.177-0.395-0.395v-12.074c0-0.218,0.177-0.395,0.395-0.395
								c0.218,0,0.395,0.177,0.395,0.395v12.074C450.293,381.785,450.116,381.962,449.898,381.962z"/>
						</g>
						<g>
							<path style="fill:#D97803;" d="M458.813,381.962c-0.218,0-0.395-0.177-0.395-0.395v-12.074c0-0.218,0.177-0.395,0.395-0.395
								c0.218,0,0.395,0.177,0.395,0.395v12.074C459.208,381.785,459.031,381.962,458.813,381.962z"/>
						</g>
					</g>
					<g>
						<g>
							<rect x="373.987" y="357.419" style="fill:#F29F04;" width="87.475" height="12.074"/>
						</g>
						<g>
							<path style="fill:#D97803;" d="M461.462,369.888h-48.729c-0.218,0-0.395-0.177-0.395-0.395s0.177-0.395,0.395-0.395h48.729
								c0.218,0,0.395,0.177,0.395,0.395S461.679,369.888,461.462,369.888z"/>
						</g>
						<g>
							<path style="fill:#D97803;" d="M425.964,369.888c-0.218,0-0.395-0.177-0.395-0.395v-12.074c0-0.218,0.177-0.395,0.395-0.395
								c0.218,0,0.395,0.177,0.395,0.395v12.074C426.358,369.711,426.181,369.888,425.964,369.888z"/>
						</g>
						<g>
							<path style="fill:#D97803;" d="M433.096,369.888c-0.218,0-0.395-0.177-0.395-0.395v-12.074c0-0.218,0.177-0.395,0.395-0.395
								c0.218,0,0.395,0.177,0.395,0.395v12.074C433.491,369.711,433.314,369.888,433.096,369.888z"/>
						</g>
						<g>
							<path style="fill:#D97803;" d="M442.903,369.888c-0.218,0-0.395-0.177-0.395-0.395v-12.074c0-0.218,0.177-0.395,0.395-0.395
								c0.218,0,0.394,0.177,0.394,0.395v12.074C443.297,369.711,443.121,369.888,442.903,369.888z"/>
						</g>
						<g>
							<path style="fill:#D97803;" d="M451.819,369.888c-0.218,0-0.395-0.177-0.395-0.395v-12.074c0-0.218,0.177-0.395,0.395-0.395
								c0.218,0,0.395,0.177,0.395,0.395v12.074C452.214,369.711,452.037,369.888,451.819,369.888z"/>
						</g>
					</g>
				</g>
				<g>
					<g>
						<g>
							<g>
								<rect x="388.638" y="369.57" style="fill:#F29F04;" width="87.475" height="12.074"/>
							</g>
							<g>
								<path style="fill:#D97803;" d="M476.113,382.039h-48.728c-0.218,0-0.395-0.177-0.395-0.395c0-0.218,0.177-0.395,0.395-0.395
									h48.728c0.218,0,0.395,0.177,0.395,0.395C476.507,381.863,476.331,382.039,476.113,382.039z"/>
							</g>
							<g>
								<path style="fill:#D97803;" d="M440.615,382.039c-0.218,0-0.395-0.177-0.395-0.395V369.57c0-0.218,0.177-0.395,0.395-0.395
									s0.395,0.177,0.395,0.395v12.075C441.009,381.863,440.833,382.039,440.615,382.039z"/>
							</g>
							<g>
								<path style="fill:#D97803;" d="M447.748,382.039c-0.218,0-0.395-0.177-0.395-0.395V369.57c0-0.218,0.177-0.395,0.395-0.395
									s0.395,0.177,0.395,0.395v12.075C448.142,381.863,447.965,382.039,447.748,382.039z"/>
							</g>
							<g>
								<path style="fill:#D97803;" d="M457.555,382.039c-0.218,0-0.395-0.177-0.395-0.395V369.57c0-0.218,0.177-0.395,0.395-0.395
									s0.395,0.177,0.395,0.395v12.075C457.95,381.863,457.773,382.039,457.555,382.039z"/>
							</g>
							<g>
								<path style="fill:#D97803;" d="M466.47,382.039c-0.218,0-0.395-0.177-0.395-0.395V369.57c0-0.218,0.177-0.395,0.395-0.395
									c0.218,0,0.395,0.177,0.395,0.395v12.075C466.865,381.863,466.688,382.039,466.47,382.039z"/>
							</g>
						</g>
						<g>
							<g>
								<rect x="380.399" y="357.496" style="fill:#F29F04;" width="87.475" height="12.074"/>
							</g>
							<g>
								<path style="fill:#D97803;" d="M467.874,369.964h-48.728c-0.218,0-0.395-0.177-0.395-0.395c0-0.218,0.177-0.395,0.395-0.395
									h48.728c0.218,0,0.395,0.177,0.395,0.395C468.268,369.787,468.091,369.964,467.874,369.964z"/>
							</g>
							<g>
								<path style="fill:#D97803;" d="M432.376,369.964c-0.218,0-0.395-0.177-0.395-0.395v-12.074c0-0.218,0.177-0.395,0.395-0.395
									c0.218,0,0.395,0.177,0.395,0.395v12.074C432.77,369.787,432.593,369.964,432.376,369.964z"/>
							</g>
							<g>
								<path style="fill:#D97803;" d="M439.508,369.964c-0.218,0-0.395-0.177-0.395-0.395v-12.074c0-0.218,0.177-0.395,0.395-0.395
									c0.218,0,0.395,0.177,0.395,0.395v12.074C439.903,369.787,439.726,369.964,439.508,369.964z"/>
							</g>
							<g>
								<path style="fill:#D97803;" d="M449.315,369.964c-0.218,0-0.395-0.177-0.395-0.395v-12.074c0-0.218,0.177-0.395,0.395-0.395
									s0.395,0.177,0.395,0.395v12.074C449.71,369.787,449.533,369.964,449.315,369.964z"/>
							</g>
							<g>
								<path style="fill:#D97803;" d="M458.231,369.964c-0.218,0-0.395-0.177-0.395-0.395v-12.074c0-0.218,0.177-0.395,0.395-0.395
									s0.395,0.177,0.395,0.395v12.074C458.626,369.787,458.449,369.964,458.231,369.964z"/>
							</g>
						</g>
						<g>
							<g>
								<rect x="391.886" y="345.421" style="fill:#F29F04;" width="87.475" height="12.074"/>
							</g>
							<g>
								<path style="fill:#D97803;" d="M479.361,357.89h-80.586c-0.218,0-0.395-0.177-0.395-0.395c0-0.218,0.177-0.395,0.395-0.395
									h80.586c0.218,0,0.395,0.177,0.395,0.395C479.755,357.713,479.579,357.89,479.361,357.89z"/>
							</g>
							<g>
								<path style="fill:#D97803;" d="M443.863,357.89c-0.218,0-0.395-0.177-0.395-0.395v-12.074c0-0.218,0.177-0.395,0.395-0.395
									c0.218,0,0.395,0.177,0.395,0.395v12.074C444.257,357.713,444.081,357.89,443.863,357.89z"/>
							</g>
							<g>
								<path style="fill:#D97803;" d="M450.995,357.89c-0.218,0-0.395-0.177-0.395-0.395v-12.074c0-0.218,0.177-0.395,0.395-0.395
									c0.218,0,0.395,0.177,0.395,0.395v12.074C451.389,357.713,451.212,357.89,450.995,357.89z"/>
							</g>
							<g>
								<path style="fill:#D97803;" d="M460.802,357.89c-0.218,0-0.395-0.177-0.395-0.395v-12.074c0-0.218,0.177-0.395,0.395-0.395
									s0.395,0.177,0.395,0.395v12.074C461.197,357.713,461.02,357.89,460.802,357.89z"/>
							</g>
							<g>
								<path style="fill:#D97803;" d="M469.717,357.89c-0.218,0-0.395-0.177-0.395-0.395v-12.074c0-0.218,0.177-0.395,0.395-0.395
									c0.218,0,0.395,0.177,0.395,0.395v12.074C470.112,357.713,469.935,357.89,469.717,357.89z"/>
							</g>
						</g>
						<g>
							<g>
								<rect x="382.828" y="333.347" style="fill:#F29F04;" width="87.475" height="12.074"/>
							</g>
							<g>
								<path style="fill:#D97803;" d="M470.302,345.816h-48.729c-0.218,0-0.395-0.177-0.395-0.395s0.177-0.395,0.395-0.395h48.729
									c0.218,0,0.395,0.177,0.395,0.395S470.52,345.816,470.302,345.816z"/>
							</g>
							<g>
								<path style="fill:#D97803;" d="M434.804,345.816c-0.218,0-0.395-0.177-0.395-0.395v-12.074c0-0.218,0.177-0.394,0.395-0.394
									c0.218,0,0.395,0.177,0.395,0.394v12.074C435.199,345.639,435.022,345.816,434.804,345.816z"/>
							</g>
							<g>
								<path style="fill:#D97803;" d="M441.937,345.816c-0.218,0-0.395-0.177-0.395-0.395v-12.074c0-0.218,0.177-0.394,0.395-0.394
									c0.218,0,0.395,0.177,0.395,0.394v12.074C442.332,345.639,442.155,345.816,441.937,345.816z"/>
							</g>
							<g>
								<path style="fill:#D97803;" d="M451.745,345.816c-0.218,0-0.395-0.177-0.395-0.395v-12.074c0-0.218,0.177-0.394,0.395-0.394
									c0.218,0,0.395,0.177,0.395,0.394v12.074C452.139,345.639,451.962,345.816,451.745,345.816z"/>
							</g>
							<g>
								<path style="fill:#D97803;" d="M460.66,345.816c-0.218,0-0.395-0.177-0.395-0.395v-12.074c0-0.218,0.177-0.394,0.395-0.394
									s0.395,0.177,0.395,0.394v12.074C461.054,345.639,460.878,345.816,460.66,345.816z"/>
							</g>
						</g>
						<g>
							<g>
								<rect x="398.881" y="321.273" style="fill:#F29F04;" width="87.475" height="12.074"/>
							</g>
							<g>
								<path style="fill:#D97803;" d="M486.355,333.741h-70.207c-0.218,0-0.395-0.177-0.395-0.395c0-0.218,0.177-0.394,0.395-0.394
									h70.207c0.218,0,0.394,0.177,0.394,0.394C486.75,333.565,486.573,333.741,486.355,333.741z"/>
							</g>
							<g>
								<path style="fill:#D97803;" d="M450.857,333.741c-0.218,0-0.395-0.177-0.395-0.395v-12.074c0-0.218,0.177-0.395,0.395-0.395
									c0.218,0,0.395,0.177,0.395,0.395v12.074C451.252,333.565,451.075,333.741,450.857,333.741z"/>
							</g>
							<g>
								<path style="fill:#D97803;" d="M457.99,333.741c-0.218,0-0.395-0.177-0.395-0.395v-12.074c0-0.218,0.177-0.395,0.395-0.395
									s0.395,0.177,0.395,0.395v12.074C458.384,333.565,458.208,333.741,457.99,333.741z"/>
							</g>
							<g>
								<path style="fill:#D97803;" d="M467.796,333.741c-0.218,0-0.394-0.177-0.394-0.395v-12.074c0-0.218,0.177-0.395,0.394-0.395
									c0.218,0,0.395,0.177,0.395,0.395v12.074C468.191,333.565,468.014,333.741,467.796,333.741z"/>
							</g>
							<g>
								<path style="fill:#D97803;" d="M476.712,333.741c-0.218,0-0.395-0.177-0.395-0.395v-12.074c0-0.218,0.177-0.395,0.395-0.395
									c0.218,0,0.395,0.177,0.395,0.395v12.074C477.107,333.565,476.93,333.741,476.712,333.741z"/>
							</g>
						</g>
						<g>
							<g>
								<rect x="391.886" y="309.198" style="fill:#F29F04;" width="87.475" height="12.074"/>
							</g>
							<g>
								<path style="fill:#D97803;" d="M479.361,321.667h-48.729c-0.218,0-0.395-0.177-0.395-0.395c0-0.218,0.177-0.395,0.395-0.395
									h48.729c0.218,0,0.395,0.177,0.395,0.395C479.755,321.491,479.579,321.667,479.361,321.667z"/>
							</g>
							<g>
								<path style="fill:#D97803;" d="M443.863,321.667c-0.218,0-0.395-0.177-0.395-0.395v-12.074c0-0.218,0.177-0.395,0.395-0.395
									c0.218,0,0.395,0.177,0.395,0.395v12.074C444.257,321.491,444.081,321.667,443.863,321.667z"/>
							</g>
							<g>
								<path style="fill:#D97803;" d="M450.995,321.667c-0.218,0-0.395-0.177-0.395-0.395v-12.074c0-0.218,0.177-0.395,0.395-0.395
									c0.218,0,0.395,0.177,0.395,0.395v12.074C451.389,321.491,451.212,321.667,450.995,321.667z"/>
							</g>
							<g>
								<path style="fill:#D97803;" d="M460.802,321.667c-0.218,0-0.395-0.177-0.395-0.395v-12.074c0-0.218,0.177-0.395,0.395-0.395
									s0.395,0.177,0.395,0.395v12.074C461.197,321.491,461.02,321.667,460.802,321.667z"/>
							</g>
							<g>
								<path style="fill:#D97803;" d="M469.717,321.667c-0.218,0-0.395-0.177-0.395-0.395v-12.074c0-0.218,0.177-0.395,0.395-0.395
									c0.218,0,0.395,0.177,0.395,0.395v12.074C470.112,321.491,469.935,321.667,469.717,321.667z"/>
							</g>
						</g>
						<g>
							<g>
								<rect x="385.39" y="297.124" style="fill:#F29F04;" width="87.475" height="12.074"/>
							</g>
							<g>
								<path style="fill:#D97803;" d="M472.865,309.593h-62.66c-0.218,0-0.395-0.177-0.395-0.395c0-0.218,0.177-0.395,0.395-0.395
									h62.66c0.218,0,0.395,0.177,0.395,0.395C473.259,309.416,473.083,309.593,472.865,309.593z"/>
							</g>
							<g>
								<path style="fill:#D97803;" d="M437.367,309.593c-0.218,0-0.395-0.177-0.395-0.395v-12.074c0-0.218,0.177-0.395,0.395-0.395
									c0.218,0,0.395,0.177,0.395,0.395v12.074C437.761,309.416,437.585,309.593,437.367,309.593z"/>
							</g>
							<g>
								<path style="fill:#D97803;" d="M444.5,309.593c-0.218,0-0.395-0.177-0.395-0.395v-12.074c0-0.218,0.177-0.395,0.395-0.395
									c0.218,0,0.395,0.177,0.395,0.395v12.074C444.894,309.416,444.717,309.593,444.5,309.593z"/>
							</g>
							<g>
								<path style="fill:#D97803;" d="M454.307,309.593c-0.218,0-0.395-0.177-0.395-0.395v-12.074c0-0.218,0.177-0.395,0.395-0.395
									c0.218,0,0.395,0.177,0.395,0.395v12.074C454.702,309.416,454.525,309.593,454.307,309.593z"/>
							</g>
							<g>
								<path style="fill:#D97803;" d="M463.222,309.593c-0.218,0-0.395-0.177-0.395-0.395v-12.074c0-0.218,0.177-0.395,0.395-0.395
									s0.395,0.177,0.395,0.395v12.074C463.617,309.416,463.44,309.593,463.222,309.593z"/>
							</g>
						</g>
						<g>
							<g>
								<rect x="396.059" y="285.049" style="fill:#F29F04;" width="87.475" height="12.074"/>
							</g>
							<g>
								<path style="fill:#D97803;" d="M483.534,297.519h-48.729c-0.218,0-0.395-0.177-0.395-0.395c0-0.218,0.177-0.395,0.395-0.395
									h48.729c0.218,0,0.395,0.177,0.395,0.395C483.928,297.342,483.752,297.519,483.534,297.519z"/>
							</g>
							<g>
								<path style="fill:#D97803;" d="M448.036,297.519c-0.218,0-0.395-0.177-0.395-0.395v-12.075c0-0.218,0.177-0.395,0.395-0.395
									s0.395,0.177,0.395,0.395v12.075C448.43,297.342,448.254,297.519,448.036,297.519z"/>
							</g>
							<g>
								<path style="fill:#D97803;" d="M455.168,297.519c-0.218,0-0.395-0.177-0.395-0.395v-12.075c0-0.218,0.177-0.395,0.395-0.395
									c0.218,0,0.395,0.177,0.395,0.395v12.075C455.562,297.342,455.385,297.519,455.168,297.519z"/>
							</g>
							<g>
								<path style="fill:#D97803;" d="M464.975,297.519c-0.218,0-0.395-0.177-0.395-0.395v-12.075c0-0.218,0.177-0.395,0.395-0.395
									c0.218,0,0.395,0.177,0.395,0.395v12.075C465.37,297.342,465.193,297.519,464.975,297.519z"/>
							</g>
							<g>
								<path style="fill:#D97803;" d="M473.89,297.519c-0.218,0-0.395-0.177-0.395-0.395v-12.075c0-0.218,0.177-0.395,0.395-0.395
									c0.218,0,0.395,0.177,0.395,0.395v12.075C474.285,297.342,474.108,297.519,473.89,297.519z"/>
							</g>
						</g>
						<g>
							<g>
								<rect x="387.819" y="272.975" style="fill:#F29F04;" width="87.475" height="12.074"/>
							</g>
							<g>
								<path style="fill:#D97803;" d="M475.295,285.444h-68.057c-0.218,0-0.395-0.177-0.395-0.395c0-0.218,0.177-0.395,0.395-0.395
									h68.057c0.218,0,0.395,0.177,0.395,0.395C475.689,285.267,475.512,285.444,475.295,285.444z"/>
							</g>
							<g>
								<path style="fill:#D97803;" d="M439.796,285.444c-0.218,0-0.395-0.177-0.395-0.395v-12.074c0-0.218,0.177-0.395,0.395-0.395
									c0.218,0,0.395,0.177,0.395,0.395v12.074C440.19,285.267,440.013,285.444,439.796,285.444z"/>
							</g>
							<g>
								<path style="fill:#D97803;" d="M446.928,285.444c-0.218,0-0.395-0.177-0.395-0.395v-12.074c0-0.218,0.177-0.395,0.395-0.395
									c0.218,0,0.395,0.177,0.395,0.395v12.074C447.323,285.267,447.146,285.444,446.928,285.444z"/>
							</g>
							<g>
								<path style="fill:#D97803;" d="M456.736,285.444c-0.218,0-0.395-0.177-0.395-0.395v-12.074c0-0.218,0.177-0.395,0.395-0.395
									s0.395,0.177,0.395,0.395v12.074C457.13,285.267,456.954,285.444,456.736,285.444z"/>
							</g>
							<g>
								<path style="fill:#D97803;" d="M465.651,285.444c-0.218,0-0.395-0.177-0.395-0.395v-12.074c0-0.218,0.177-0.395,0.395-0.395
									c0.218,0,0.395,0.177,0.395,0.395v12.074C466.046,285.267,465.869,285.444,465.651,285.444z"/>
							</g>
						</g>
					</g>
					<g>
						<g>
							<path style="fill:#F2E1D1;" d="M356.654,224.92c0,0,1.153-9.468,14.645-10.855c5.534-0.569,6.556,9.683,6.556,9.683
								L356.654,224.92z"/>
						</g>
						<g>
							<path style="fill:#8580A4;" d="M399.261,330.28l14.028,34.716l-47.358,16.648c0,0,1.102-11.432,6.222-14.724
								c12.098-7.777,7.086-12.012,5.012-25.942C375.092,327.048,399.261,330.28,399.261,330.28z"/>
						</g>
						<g>
							<path style="fill:#8580A4;" d="M344.21,338.264l-7.946,36.591l-48.514-12.896c0,0,7.346-8.829,13.431-8.668
								c14.378,0.382,12.618-5.94,18.745-18.621C326.053,321.988,344.21,338.264,344.21,338.264z"/>
						</g>
						<g>
							<path style="fill:#4E508D;" d="M307.869,344.714c0.691-1.037,42.293-87.09,42.293-87.09s4.738-20.188,17.527-23.644
								c6.153-1.663,15.209,0,15.209,0l8.987,27.999c0,0-29.428,59.422-45.14,95.48
								C325.803,368.313,307.869,344.714,307.869,344.714z"/>
						</g>
						<g>
							<path style="fill:#8580A4;" d="M366.063,214.042c0,0,24.715-9.554,24.972-10.559c2.376-9.29,5.315-47.896,21.71-53.347
								c6.449-2.144,4.304,27.3,4.304,27.3l1.037,45.109l-40.256,6.751L366.063,214.042z"/>
						</g>
						<g>
							<path style="fill:#4E508D;" d="M372.325,359.595c0,0-26.012-88.332-27.454-95.742c-3.31-17.006,12.55-34.912,21.883-34.912
								s97.896-2.478,101.225,0c8.714,6.487,11.76,35.909,1.734,43.405c-11.402,8.524-83.215-3.315-83.215-3.315
								s25.704,59.417,24.224,79.849C399.266,360.98,372.325,359.595,372.325,359.595z"/>
						</g>
						<g>
							<rect x="350.162" y="221.261" style="fill:#4E508D;" width="65.986" height="7.318"/>
						</g>
						<g>
							<path style="fill:#4E508D;" d="M337.401,170.519l19.574,55.307l-6.898,2.441l-22.016-62.205h0
								C331.871,164.713,336.052,166.709,337.401,170.519z"/>
						</g>
						<g>
							<path style="fill:#8580A4;" d="M477.019,247.599l-71.061-20.053c0,0-12.073-57.975-0.234-71.894
								c2.865-3.379,5.082-5.404,11.228-6.799c7.664-1.763,17.127-1.995,26.529-0.784c3.465,0.453,6.929,1.102,10.284,1.947
								C463.742,156.21,477.019,247.599,477.019,247.599z"/>
						</g>
						<g>
							<g>
								<path style="fill:#F2E1D1;" d="M407.112,111.22c0,0-2.854,25.158,5.655,27.987c8.508,2.83,21.402-8.747,21.402-8.747
									l1.409-20.83L407.112,111.22z"/>
							</g>
							<g>
								<path style="fill:#F2E1D1;" d="M418.871,134.916l1.113,17.116c0,0,14.561,2.136,17.764-2.447
									c0.729-1.043-5.717-19.614-5.717-19.614L418.871,134.916z"/>
							</g>
							<g>
								<path style="fill:#4E508D;" d="M402.311,106.916c-0.639,1.978-1.04,6.162,3.332,7.261c4.371,1.1,15.279-4.268,16.106-2.149
									c1.287,3.295,4.202,7.295,7.074,8.05c1.747,4.992,1.706,5.221,1.706,5.221s-1.046,8.916,3.441,13.235
									c2.823,2.717,15.314-3.643,15.267-10.49c-0.045-6.556-2.939-10.569-5.756-13.892c-2.817-3.324-2.798-6.628-4.041-8.985
									c-1.243-2.356-5.414-5.894-9.299-4.733c-4.762,1.423-5.473-4.104-11.188-0.87
									C413.626,102.577,404.263,100.875,402.311,106.916z"/>
							</g>
							<g>
								<path style="fill:#4E508D;" d="M419.283,139.147c2.695-0.462,7.883-4.996,7.883-4.996l-7.775,8.767
									C419.391,142.917,419.41,140.446,419.283,139.147z"/>
							</g>
							<g>
								<path style="fill:#4E508D;" d="M409.788,121.689c0.109,0.685-0.219,1.306-0.732,1.387c-0.513,0.082-1.018-0.407-1.127-1.091
									c-0.109-0.684,0.219-1.306,0.732-1.387C409.175,120.516,409.68,121.005,409.788,121.689z"/>
							</g>
							<g>
								<path style="fill:#4E508D;" d="M418.367,121.06c0.109,0.684-0.219,1.306-0.732,1.387c-0.513,0.082-1.018-0.407-1.127-1.091
									c-0.109-0.685,0.219-1.306,0.732-1.388C417.753,119.887,418.258,120.375,418.367,121.06z"/>
							</g>
							<g>
								<path style="fill:#4E508D;" d="M413.513,128.34c-0.546,0-1.355-0.06-1.979-0.359c-1.073-0.514,0.013-4.226,0.53-5.798
									c0.051-0.155,0.213-0.239,0.374-0.189c0.155,0.051,0.24,0.219,0.189,0.374c-0.814,2.477-1.213,4.897-0.837,5.078
									c0.865,0.415,2.257,0.278,2.271,0.277c0.177-0.013,0.309,0.102,0.325,0.265c0.017,0.163-0.102,0.308-0.265,0.325
									C414.097,128.316,413.857,128.34,413.513,128.34z"/>
							</g>
							<g>
								<g>
									<path style="fill:#F2E1D1;" d="M427.85,121.328c0.132-0.042,0.785-2.783,3.473-2.7c2.394,0.074,3.063,3.904,2.412,4.857
										c-2.016,2.951-4.444,3.152-4.444,3.152L427.85,121.328z"/>
								</g>
								<g>
									<path style="fill:#4E508D;" d="M432.47,122.78c-0.161,0-0.293-0.128-0.296-0.29c-0.012-0.507-0.151-0.842-0.414-0.994
										c-0.549-0.318-1.587,0.113-1.94,0.306c-0.143,0.078-0.322,0.026-0.401-0.118c-0.078-0.144-0.026-0.324,0.117-0.402
										c0.16-0.088,1.591-0.837,2.52-0.299c0.455,0.263,0.693,0.765,0.71,1.494c0.004,0.164-0.126,0.299-0.289,0.303
										C432.475,122.78,432.472,122.78,432.47,122.78z"/>
								</g>
								<g>
									<path style="fill:#4E508D;" d="M430.737,123.659c-0.134,0-0.256-0.091-0.288-0.227c-0.042-0.172,0.044-0.328,0.23-0.67
										c0.226-0.414,0.568-1.04,0.634-1.666c0.018-0.162,0.149-0.281,0.326-0.264c0.162,0.018,0.28,0.163,0.264,0.326
										c-0.078,0.744-0.455,1.432-0.704,1.888c-0.064,0.117-0.142,0.26-0.166,0.321c-0.002,0.132-0.093,0.25-0.227,0.283
										C430.783,123.656,430.759,123.659,430.737,123.659z"/>
								</g>
							</g>
							<g>
								<path style="fill:#4E508D;" d="M413.515,131.908c-0.792,0-1.385-0.173-1.399-0.178c-0.156-0.048-0.245-0.213-0.197-0.369
									c0.046-0.157,0.212-0.244,0.369-0.198c0.137,0.042,3.368,0.973,4.413-2.081c0.054-0.155,0.226-0.236,0.376-0.184
									c0.155,0.053,0.237,0.221,0.185,0.376C416.507,131.476,414.763,131.908,413.515,131.908z"/>
							</g>
						</g>
						<g>
							<path style="fill:#F2E1D1;" d="M443.481,148.068c-3.599,3.82-13.307,13.21-21.032,12.255
								c-7.505-0.943-6.39-8.227-5.497-11.471C424.615,147.089,434.079,146.857,443.481,148.068z"/>
						</g>
						<g>
							<path style="fill:#4E508D;" d="M423.897,164.009c-3.556,0-5.88-0.977-5.931-1c-0.149-0.065-0.218-0.24-0.152-0.39
								c0.065-0.151,0.242-0.22,0.39-0.153c0.108,0.046,11.016,4.613,21.814-6.674c0.111-0.117,0.301-0.122,0.419-0.009
								c0.118,0.113,0.122,0.301,0.009,0.419C434.36,162.564,428.218,164.009,423.897,164.009z"/>
						</g>
						<g>
							<path style="fill:#F2E1D1;" d="M379.066,221.261c-1.664-5.728,15.457-10.303,21.987-9.266
								c6.53,1.037,4.111,9.852,4.111,9.852S391.886,221.261,379.066,221.261z"/>
						</g>
						<g>
							<path style="fill:#4E508D;" d="M401.92,205.983c-0.017,0-0.034-0.001-0.052-0.004c-0.161-0.028-0.268-0.182-0.24-0.343
								c0.497-2.82-0.224-4.497-1.06-6.439c-0.568-1.323-1.214-2.823-1.498-4.848c-0.608-4.317,1.64-6.917,3.812-9.432
								c0.346-0.399,0.688-0.795,1.015-1.195c2.228-2.724,1.419-10.72,1.41-10.8c-0.017-0.163,0.102-0.309,0.264-0.326
								c0.179-0.018,0.309,0.102,0.326,0.264c0.035,0.338,0.843,8.323-1.541,11.237c-0.33,0.404-0.676,0.804-1.024,1.207
								c-2.087,2.414-4.245,4.911-3.676,8.962c0.274,1.946,0.875,3.344,1.457,4.696c0.836,1.945,1.626,3.781,1.099,6.775
								C402.186,205.882,402.061,205.983,401.92,205.983z"/>
						</g>
						<g>
							<path style="fill:#4E508D;" d="M445.761,180.28c0,0,2.466,9.057,1.142,20.308c-0.82,6.964-24.271,8.614-24.271,8.614
								s27.589,8.874,32.738,2.645C460.626,205.489,445.761,180.28,445.761,180.28z"/>
						</g>
						<g>
							<path style="fill:#8580A4;" d="M401.053,210.594c0,0,43.691-2.513,51.467-2.402c4.279,0.061-11.119-31.263-12.759-35.851
								c-3.509-9.82,6.41-21.376,9.803-22.354c9.82-2.83,20.14,15.646,25.799,31.791c5.659,16.145,6.325,36.285,6.325,36.285
								s2.516,12.508-7.97,13.506c-10.486,0.999-74.92-4.019-74.92-4.019S398.39,213.091,401.053,210.594z"/>
						</g>
						<g>
							<path style="fill:#4E508D;" d="M467.198,232.182c-15.798,0-51.607-2.465-53.413-2.59c-0.163-0.011-0.286-0.153-0.275-0.316
								c0.012-0.164,0.155-0.289,0.316-0.275c0.528,0.037,52.877,3.642,59.835,2.279c0.156-0.03,0.315,0.074,0.348,0.234
								c0.031,0.161-0.073,0.316-0.234,0.348C472.622,232.087,470.293,232.182,467.198,232.182z"/>
						</g>
						<g>
							<path style="fill:#4E508D;" d="M402.917,211.428c-0.148,0-0.277-0.111-0.294-0.262c-0.02-0.163,0.098-0.31,0.26-0.329
								c0.28-0.032,28.235-3.238,47.866-3.492c0.514-0.007,0.986-0.238,1.265-0.62c0.245-0.335,0.313-0.745,0.189-1.153
								c-3.333-10.989-6.359-19.908-8.996-26.51c-0.264-0.66-0.644-1.053-1.069-1.107c-0.363-0.046-0.769,0.162-1.061,0.56
								c-0.346,0.471-0.571,1.286-0.169,2.16c0.068,0.149,0.003,0.325-0.146,0.393c-0.146,0.067-0.324,0.004-0.394-0.145
								c-0.51-1.108-0.216-2.151,0.23-2.759c0.421-0.575,1.026-0.872,1.613-0.797c0.376,0.047,1.076,0.303,1.545,1.475
								c2.643,6.618,5.675,15.553,9.012,26.558c0.18,0.591,0.082,1.186-0.276,1.675c-0.388,0.531-1.037,0.854-1.735,0.863
								c-19.601,0.253-47.526,3.456-47.806,3.488C402.939,211.427,402.927,211.428,402.917,211.428z"/>
						</g>
						<g>
							<path style="fill:#F2E1D1;" d="M361.951,325.26c-0.147-0.464-14.709-46.523-16.659-58.468l0.604-0.1
								c1.944,11.902,16.493,57.919,16.64,58.382L361.951,325.26z"/>
						</g>
						<g>
							<path style="fill:#F2E1D1;" d="M374.926,352.651l-0.018-0.611c0.23-0.007,22.986-0.773,29.909-7.485
								c1.926-7.901-13.317-48.02-20.656-67.333c-2.148-5.653-3.567-9.389-3.836-10.4c-0.513-1.927,0.532-3.929,1.796-5.057
								c1.196-1.068,2.616-1.43,3.796-0.97c2.593,1.015,44.955,6.124,54.477,7.067c14.035,1.392,22.781,0.374,25.989-3.017
								c6.897-7.293,2.262-19.309,2.215-19.43l0.568-0.225c0.05,0.124,4.824,12.502-2.338,20.075
								c-3.346,3.537-12.26,4.613-26.495,3.206c-8.065-0.8-51.892-6.032-54.639-7.106c-0.963-0.375-2.145-0.057-3.166,0.856
								c-1.123,1.003-2.058,2.767-1.611,4.442c0.261,0.981,1.752,4.906,3.816,10.34c7.387,19.439,22.757,59.892,20.655,67.789
								l-0.021,0.08l-0.06,0.059C398.288,351.866,375.878,352.622,374.926,352.651z"/>
						</g>
						<g>
							<path style="fill:#F2E1D1;" d="M340.747,352.243c-12.329,0-24.814-9.582-24.954-9.691l0.375-0.482
								c0.155,0.119,15.642,11.996,28.94,9.111c2.017-0.439,9.263-23.058,13.356-37.213l0.588,0.17
								c-1.094,3.783-10.777,36.982-13.815,37.641C343.759,352.1,342.253,352.243,340.747,352.243z"/>
						</g>
					</g>
				</g>
			</g>
			<g>
				<g>
					
						<ellipse transform="matrix(0.5586 -0.8294 0.8294 0.5586 -101.0201 585.3837)" style="fill:#F29F04;" cx="499.486" cy="387.605" rx="43.593" ry="43.593"/>
				</g>
				<g>
					<path style="fill:#D97803;" d="M499.442,425.456c-2.474,0-4.94-0.245-7.384-0.735c-15.17-3.041-26.846-14.827-29.745-30.028
						c-3.908-20.496,9.588-40.352,30.085-44.261c13.519-2.573,27.395,2.401,36.208,12.995c4.069,4.893,6.854,10.803,8.053,17.091
						c1.586,8.319,0.399,16.697-3.434,24.228c-5.354,10.522-15.068,17.823-26.651,20.031
						C504.202,425.23,501.819,425.456,499.442,425.456z M499.48,351.311c-2.256,0-4.529,0.211-6.793,0.642
						c-19.658,3.749-32.601,22.792-28.852,42.45c2.78,14.578,13.977,25.883,28.528,28.8c4.594,0.922,9.278,0.94,13.922,0.053
						c11.108-2.117,20.425-9.12,25.562-19.212c3.675-7.222,4.813-15.258,3.291-23.237c-1.149-6.03-3.819-11.698-7.721-16.39
						C520.439,356.029,510.153,351.311,499.48,351.311z"/>
				</g>
				<g>
					<path style="fill:#D97803;" d="M515.293,387.241c-1.563-1.332-3.779-2.033-6.649-2.104l-0.044-0.271
						c2.177-0.763,3.737-2.01,4.68-3.742c0.943-1.731,1.226-3.754,0.848-6.068c-0.56-3.435-2.186-5.75-4.877-6.945
						c-1.433-0.636-3.27-0.967-5.487-1.012l-0.717-4.4c-0.244-1.498-1.656-2.514-3.154-2.27c-1.498,0.244-2.514,1.656-2.27,3.154
						l0.635,3.894c-0.408,0.057-0.809,0.108-1.233,0.177l-2.669,0.435l-0.631-3.871c-0.244-1.498-1.656-2.514-3.154-2.27
						s-2.514,1.656-2.27,3.154l0.631,3.871l-3.677,0.6l-3.71,0.605c-1.498,0.244-2.514,1.656-2.27,3.154
						c0.244,1.498,1.656,2.514,3.154,2.27l3.71-0.605l4.691,28.774l-3.71,0.605c-1.498,0.244-2.514,1.656-2.27,3.154
						c0.244,1.498,1.656,2.514,3.154,2.27l3.71-0.605l0.004,0.027l3.677-0.599l0.631,3.871c0.244,1.498,1.656,2.514,3.154,2.27
						c1.498-0.244,2.514-1.656,2.27-3.154l-0.631-3.871l3.898-0.635l0.631,3.871c0.244,1.498,1.656,2.514,3.154,2.27
						s2.514-1.656,2.27-3.154l-0.688-4.219c2.444-0.859,4.396-2.085,5.833-3.698c2.157-2.421,2.946-5.412,2.365-8.974
						C517.852,390.56,516.855,388.574,515.293,387.241z M498.234,373.026c2.929-0.478,5.134-0.41,6.617,0.202
						c1.482,0.612,2.375,1.849,2.679,3.711c0.336,2.061-0.049,3.623-1.157,4.685c-1.108,1.063-3.018,1.814-5.73,2.257l-6.237,1.017
						l-1.786-10.956l2.347-0.383L498.234,373.026z M510.088,399.031c-1.214,1.265-3.176,2.119-5.888,2.561l-4.542,0.74l-2.347,0.383
						l-2.047-12.556l6.563-1.07c2.874-0.469,5.098-0.321,6.67,0.444c1.573,0.764,2.526,2.177,2.863,4.238
						C511.725,396.013,511.302,397.766,510.088,399.031z"/>
				</g>
				<g>
					<path style="fill:#D97803;" d="M488.121,430.095c-0.034,0-0.068-0.004-0.104-0.014c-16.397-4.439-28.559-17.559-31.74-34.237
						c-2.201-11.542,0.225-23.249,6.83-32.967c6.604-9.717,16.599-16.28,28.14-18.481c1.447-0.276,2.923-0.482,4.388-0.613
						c0.207-0.021,0.409,0.141,0.429,0.358c0.019,0.217-0.142,0.409-0.358,0.429c-1.438,0.128-2.889,0.33-4.309,0.602
						c-23.399,4.462-38.805,27.127-34.343,50.524c3.124,16.381,15.067,29.265,31.172,33.624c0.21,0.057,0.334,0.273,0.277,0.484
						C488.454,429.98,488.295,430.095,488.121,430.095z"/>
				</g>
			</g>
		</g>
		<g>
			<rect x="40.422" y="429.906" style="fill:#4E508D;" width="519.157" height="3.276"/>
		</g>
	</g>
</g>
</svg>
